<svg width="73" height="36" fill="none" xmlns="http://www.w3.org/2000/svg"><path fill-rule="evenodd" clip-rule="evenodd" d="M50.99 3.598V0h-4.188v3.598h4.188zM36.828 17.863c1.439 0 2.72-.488 3.725-1.33l.401.914h3.148V.694h-4.205v4.895a5.78 5.78 0 0 0-3.069-.854c-3.79 0-6.489 2.732-6.489 6.557 0 1.618.483 3.042 1.327 4.148v16.017h4.254v-6.573c0-1.58.802-2.49 2.09-2.49 1.11 0 1.61.724 1.61 2.144v6.919h4.253v-7.412c0-3.19-1.822-5.26-4.657-5.26a5.28 5.28 0 0 0-3.297 1.174v-2.15a7.5 7.5 0 0 0 .91.054zm.57-3.754c-1.594 0-2.765-1.21-2.765-2.816 0-1.608 1.17-2.817 2.764-2.817 1.594 0 2.765 1.21 2.765 2.817 0 1.607-1.171 2.816-2.765 2.816zm-27.195 2.454c-1.011.817-2.292 1.287-3.726 1.287C2.699 17.85 0 15.104 0 11.28c0-3.813 2.7-6.526 6.476-6.526 1.454 0 2.753.484 3.773 1.323l.435-.952h3.17v12.309h-3.288l-.364-.87zM4.28 11.29c0 1.607 1.171 2.807 2.764 2.807 1.594 0 2.765-1.2 2.765-2.807 0-1.598-1.171-2.797-2.765-2.797-1.603 0-2.764 1.2-2.764 2.797zm18.186 6.561c3.648 0 6.078-2.243 6.078-5.687V5.138H24.29v6.84c0 1.287-.687 2.063-1.824 2.063-1.136 0-1.837-.764-1.837-2.063v-6.84h-4.254v7.025c0 3.444 2.443 5.687 6.091 5.687zM51.023 5.138v12.308h-.386v.162h-4.189V14.01h.321V5.138h4.254zm18.64 3.139c.463 0 .853-.156 1.172-.466.318-.31.478-.7.478-1.173 0-.463-.16-.852-.478-1.166A1.604 1.604 0 0 0 69.663 5c-.463 0-.855.157-1.178.472A1.563 1.563 0 0 0 68 6.638c0 .472.162.863.484 1.173.324.31.716.466 1.179.466zm-9.76 9.573c4.014 0 6.925-2.755 6.925-6.558 0-3.815-2.911-6.557-6.924-6.557-4.027 0-6.925 2.742-6.925 6.557 0 1.277.327 2.436.914 3.412h-.548v16.753H57.6V17.522a7.985 7.985 0 0 0 2.305.328zm0-3.808c-1.55 0-2.663-1.122-2.663-2.75 0-1.627 1.112-2.748 2.663-2.748 1.552 0 2.664 1.131 2.664 2.749 0 1.627-1.112 2.749-2.663 2.749zM20.227 31.056v4.846h-4.205V19.149h2.893l.532.977c1.016-.875 2.323-1.38 3.79-1.38 3.777 0 6.476 2.722 6.476 6.557 0 3.835-2.7 6.57-6.475 6.57a5.79 5.79 0 0 1-3.011-.817zm-.323-5.753c0 1.616 1.171 2.816 2.765 2.816 1.583 0 2.764-1.2 2.764-2.816 0-1.617-1.171-2.817-2.764-2.817-1.594 0-2.765 1.2-2.765 2.817zm30.766-6.155v12.309h-4.254V19.148h4.254zm15.593 12.713c3.099 0 5.597-1.756 6.466-4.564h-4.233c-.409.72-1.24 1.154-2.233 1.154-1.343 0-2.243-.73-2.52-2.142h9.17A7.78 7.78 0 0 0 73 25.186c0-3.61-2.756-6.44-6.737-6.44-3.876 0-6.708 2.774-6.708 6.547 0 3.76 2.855 6.568 6.708 6.568zm2.547-7.9h-4.993c.344-1.222 1.206-1.894 2.446-1.894 1.284 0 2.173.664 2.547 1.894z" fill="#ADADAD"/></svg>