<svg width="114" height="20" fill="none" xmlns="http://www.w3.org/2000/svg"><path fill-rule="evenodd" clip-rule="evenodd" d="M25.1 19.45c-.637.367-1.375.55-2.213.55-.951 0-1.841-.18-2.67-.537a6.988 6.988 0 0 1-2.194-1.488 6.995 6.995 0 0 1-1.486-2.195A6.68 6.68 0 0 1 16 13.106c0-.952.179-1.843.537-2.674a6.996 6.996 0 0 1 1.486-2.195 6.989 6.989 0 0 1 2.193-1.487 6.663 6.663 0 0 1 2.671-.538c.838 0 1.576.182 2.213.544a4.847 4.847 0 0 1 1.585 1.435V0h3.195v19.66h-3.195V18.02a4.976 4.976 0 0 1-1.585 1.428zm-4-3.041a3.42 3.42 0 0 0 1.827.511c.68 0 1.283-.17 1.807-.511.523-.34.934-.802 1.23-1.383a4.158 4.158 0 0 0 .446-1.92c0-.708-.149-1.352-.446-1.933a3.513 3.513 0 0 0-1.237-1.383 3.248 3.248 0 0 0-1.8-.51c-.672 0-1.284.172-1.834.517a3.9 3.9 0 0 0-1.322 1.383 3.794 3.794 0 0 0-.498 1.926A3.826 3.826 0 0 0 21.1 16.41zM39.294 20c.794 0 1.486-.181 2.075-.544a4.375 4.375 0 0 0 1.434-1.422l.131 1.625h3.208V6.553h-3.195l.144 1.678a5.992 5.992 0 0 0-1.748-1.468c-.685-.385-1.464-.577-2.337-.577-.934 0-1.807.175-2.619.524a6.818 6.818 0 0 0-2.147 1.455c-.62.62-1.1 1.341-1.44 2.163-.341.821-.511 1.7-.511 2.634a6.935 6.935 0 0 0 2.042 4.967 7.158 7.158 0 0 0 2.24 1.52c.846.367 1.754.551 2.723.551zm-1.722-3.578a3.51 3.51 0 0 0 1.814.498c.698 0 1.305-.18 1.82-.537a3.383 3.383 0 0 0 1.171-1.435c.267-.599.374-1.26.321-1.986a4.213 4.213 0 0 0-.602-1.854 4.015 4.015 0 0 0-1.31-1.33 3.32 3.32 0 0 0-1.793-.499 3.3 3.3 0 0 0-1.853.538 3.59 3.59 0 0 0-1.264 1.435c-.296.598-.414 1.264-.353 1.998a4.05 4.05 0 0 0 .655 1.842c.366.555.831.998 1.394 1.33zm16.19 3.237V9.751h2.54V6.553h-2.54V2.438h-3.194v4.115H48.63v3.198h1.938v9.908h3.195zm13.35-.203c-.59.363-1.281.544-2.076.544a6.774 6.774 0 0 1-2.723-.55 7.158 7.158 0 0 1-2.24-1.52 6.935 6.935 0 0 1-2.043-4.967c.001-.936.172-1.814.512-2.635.34-.822.82-1.542 1.44-2.163A6.818 6.818 0 0 1 62.13 6.71a6.551 6.551 0 0 1 2.618-.524c.873 0 1.652.192 2.338.577a5.991 5.991 0 0 1 1.748 1.468l-.144-1.678h3.195V19.66h-3.209l-.13-1.625a4.375 4.375 0 0 1-1.434 1.422zm-1.984-2.536a3.51 3.51 0 0 1-1.813-.498 4.226 4.226 0 0 1-1.395-1.33 4.049 4.049 0 0 1-.655-1.842c-.06-.734.057-1.4.354-1.998a3.592 3.592 0 0 1 1.264-1.435 3.3 3.3 0 0 1 1.852-.538 3.32 3.32 0 0 1 1.794.498c.533.332.97.776 1.31 1.33.34.555.54 1.174.602 1.855.052.725-.055 1.387-.321 1.986a3.383 3.383 0 0 1-1.172 1.435c-.515.358-1.122.537-1.82.537zm19.556 2.543a6.74 6.74 0 0 1-2.691.537c-.82 0-1.547-.186-2.18-.557a5.154 5.154 0 0 1-1.591-1.448v1.664h-3.195V0h3.195v8.191a5.152 5.152 0 0 1 1.59-1.448c.634-.371 1.36-.557 2.181-.557 1.274 0 2.435.31 3.483.93a7.026 7.026 0 0 1 2.5 2.497c.62 1.045.93 2.2.93 3.467 0 .952-.178 1.848-.536 2.687a6.955 6.955 0 0 1-3.686 3.696zm-2.73-2.556c-.664 0-1.257-.17-1.781-.511a3.531 3.531 0 0 1-1.23-1.383 4.187 4.187 0 0 1-.446-1.933c0-.69.148-1.326.445-1.907a3.58 3.58 0 0 1 1.23-1.39 3.164 3.164 0 0 1 1.782-.517c.672 0 1.287.17 1.846.511.559.341 1.004.802 1.335 1.383.332.58.498 1.221.498 1.92 0 .708-.166 1.35-.498 1.927a3.881 3.881 0 0 1-1.329 1.382 3.435 3.435 0 0 1-1.852.518zM94.046 4.135c-.319.31-.71.465-1.172.465-.463 0-.855-.155-1.178-.465-.323-.31-.485-.701-.485-1.173 0-.463.162-.852.484-1.166a1.626 1.626 0 0 1 1.179-.472c.463 0 .853.157 1.172.472.319.314.478.703.478 1.166 0 .472-.16.863-.478 1.173zM111.874 9.6c.463 0 .853-.155 1.172-.465.318-.31.478-.701.478-1.173 0-.463-.16-.852-.478-1.166a1.604 1.604 0 0 0-1.172-.472c-.463 0-.856.157-1.179.472a1.567 1.567 0 0 0-.484 1.166c0 .472.162.863.484 1.173.323.31.716.465 1.179.465zM11.628 17.478c-1.265 1.23-2.814 1.846-4.65 1.846-1.836 0-3.394-.616-4.676-1.846C1.021 16.248.38 14.696.38 12.824c0-1.838.64-3.38 1.922-4.628 1.282-1.248 2.84-1.872 4.676-1.872 1.836 0 3.385.624 4.65 1.872 1.264 1.248 1.896 2.79 1.896 4.628 0 1.872-.632 3.423-1.896 4.654zm82.83-10.925h-3.195V19.66h3.195V6.553zm14.399 9.908v3.198H97.675v-3.198l6.586-6.71h-6.586V6.553h11.182v3.198l-6.573 6.71h6.573z" fill="#ADADAD"/></svg>