<svg width="84" height="27" fill="none" xmlns="http://www.w3.org/2000/svg"><g fill="#151515"><path d="M8.852 19.42c-1.108 0-2.175-.128-3.202-.385a9.648 9.648 0 0 1-2.756-1.137c-.811-.502-1.453-1.13-1.925-1.882-.473-.752-.709-1.63-.709-2.633v-.315h5.39v.245c0 .676.3 1.172.901 1.487.601.315 1.415.473 2.441.473.537 0 1.053-.056 1.55-.167.495-.11.903-.291 1.224-.542.321-.251.482-.569.482-.954 0-.618-.342-1.056-1.024-1.313-.683-.256-1.777-.513-3.282-.77a21.71 21.71 0 0 1-2.59-.595A10.938 10.938 0 0 1 2.937 9.91 5.28 5.28 0 0 1 1.17 8.28C.727 7.622.505 6.82.505 5.875c0-1.26.382-2.322 1.146-3.185.764-.863 1.782-1.517 3.054-1.96C5.977.287 7.377.065 8.905.065c1.458 0 2.818.242 4.078.726 1.26.484 2.28 1.179 3.062 2.083.782.904 1.172 1.992 1.172 3.264v.244H11.88v-.209c0-.467-.149-.846-.446-1.138a2.804 2.804 0 0 0-1.129-.656 4.616 4.616 0 0 0-1.418-.219c-.443 0-.9.05-1.373.149-.473.099-.872.262-1.199.49-.327.227-.49.545-.49.954 0 .396.175.72.525.97.35.252.84.456 1.47.613.63.158 1.36.306 2.188.446.781.129 1.607.307 2.476.534.869.228 1.686.549 2.45.963a5.339 5.339 0 0 1 1.855 1.627c.472.671.708 1.52.708 2.546 0 1.062-.244 1.972-.735 2.73a5.607 5.607 0 0 1-1.986 1.847c-.834.472-1.761.822-2.782 1.05-1.021.227-2.068.341-3.142.341z"/><path fill-rule="evenodd" clip-rule="evenodd" d="M33.479 11.107V19h5.407V7.363c0-1.459-.242-2.733-.726-3.824-.484-1.091-1.219-1.943-2.205-2.555C34.97.37 33.712.065 32.184.065c-1.458 0-2.785.344-3.981 1.032a7.575 7.575 0 0 0-2.39 2.15V.414H20.39V19h5.425V9.27c0-.898.163-1.692.49-2.38a3.755 3.755 0 0 1 1.409-1.61c.612-.385 1.338-.578 2.178-.578.969 0 1.71.193 2.223.578.513.385.87.895 1.067 1.531a7.06 7.06 0 0 1 .298 2.109V11.107zM25.814 9.27V3.246a8.162 8.162 0 0 0-.455.704c-.7 1.213-1.05 2.625-1.05 4.235l1.505 1.085zM45.164 18.738c1.056.431 2.26.647 3.614.647 1.155 0 2.231-.149 3.229-.446.997-.298 1.86-.724 2.59-1.278.257-.195.49-.404.697-.627.048.19.104.378.169.566.116.338.26.636.428.892.17.257.295.426.377.508h5.337c-.116-.105-.262-.292-.437-.56a3.736 3.736 0 0 1-.438-1.015 5.649 5.649 0 0 1-.201-1.199c-.03-.437-.044-.895-.044-1.373V6.82c0-1.528-.423-2.788-1.268-3.78-.846-.992-1.963-1.735-3.352-2.231-1.388-.496-2.899-.744-4.532-.744-1.75 0-3.32.265-4.708.796-1.388.531-2.488 1.31-3.298 2.337-.811 1.026-1.217 2.286-1.217 3.78h5.338c0-.922.33-1.608.989-2.057.659-.449 1.612-.674 2.86-.674 1.18 0 2.098.199 2.757.596.66.396.989.939.989 1.627V6.505c0 .408-.388.694-1.164.857-.776.164-2.185.345-4.226.543-1.4.14-2.698.429-3.894.866-1.196.438-2.155 1.07-2.879 1.899-.723.828-1.085 1.902-1.085 3.22 0 1.167.298 2.158.893 2.975.595.817 1.42 1.44 2.476 1.873zm7.455-3.877a6.14 6.14 0 0 1-2.389.464c-.991 0-1.738-.16-2.24-.481-.501-.321-.752-.802-.752-1.444 0-.677.294-1.158.883-1.444.59-.286 1.48-.487 2.67-.604a41.758 41.758 0 0 0 3.018-.428c.466-.084.906-.178 1.321-.282v.15c0 1.074-.233 1.943-.7 2.608a4.104 4.104 0 0 1-1.811 1.461zm2.511-4.22c.484-.121.933-.258 1.348-.409L55.13 8.92v1.722zM71.112 18.239a7.324 7.324 0 0 0 4.042 1.181c1.54 0 2.964-.37 4.27-1.111 1.307-.741 2.357-1.84 3.15-3.299.794-1.458 1.19-3.255 1.19-5.39 0-2.042-.405-3.774-1.216-5.197-.81-1.424-1.87-2.506-3.176-3.247A8.412 8.412 0 0 0 75.154.065c-1.47 0-2.817.373-4.042 1.12-.631.384-1.197.84-1.698 1.37V.414h-5.442v26.232h5.442v-9.843c.501.551 1.067 1.03 1.698 1.435zm-1.698-8.024-2.345.053v.279c0 1.669.368 3.17 1.103 4.507.356.648.77 1.231 1.242 1.75v-6.379c0 .863.21 1.619.63 2.266.42.648.963 1.146 1.628 1.496.665.35 1.359.526 2.082.526 1.19 0 2.226-.412 3.106-1.234.881-.823 1.322-2.109 1.322-3.859s-.438-3.025-1.313-3.824c-.875-.799-1.913-1.199-3.115-1.199-.723 0-1.417.173-2.082.517a4.308 4.308 0 0 0-1.628 1.461c-.42.63-.63 1.382-.63 2.257V2.554a8.695 8.695 0 0 0-1.242 1.685c-.735 1.289-1.103 2.774-1.103 4.454l2.345.14v1.382z"/></g></svg>