<svg width="83" height="24" fill="none" xmlns="http://www.w3.org/2000/svg"><path fill-rule="evenodd" clip-rule="evenodd" d="M21.943 10.971c0 .302-.012.6-.036.896a7.55 7.55 0 0 0-6.814-4.324 7.543 7.543 0 0 0-3.227 14.364 11.124 11.124 0 0 1-2.638-.102A8.914 8.914 0 1 1 21.805 9.228c.09.568.138 1.15.138 1.743zm-.138-1.743C20.97 3.997 16.437 0 10.971 0 4.912 0 0 4.912 0 10.971c0 5.466 3.997 9.999 9.228 10.834A8.915 8.915 0 0 0 21.805 9.228zm-9.939 12.679a7.542 7.542 0 0 0 10.04-10.04 10.974 10.974 0 0 1-10.04 10.04zm48.112-9.043v4.279H57.69l.017-11.85h2.271v7.242l3.012-4.279h2.764l-3.209 4.443 3.423 4.444h-2.913l-3.077-4.279zm-7.492 4.127c-.502.266-1.137.399-1.905.399-.636 0-1.175-.122-1.617-.367a2.503 2.503 0 0 1-1.004-.979 2.734 2.734 0 0 1-.341-1.353c0-.412.063-.788.189-1.128.126-.34.33-.64.613-.9.282-.261.662-.48 1.14-.655.329-.12.721-.227 1.176-.32.456-.094.971-.183 1.547-.268l.353-.052.366-.055.357-.053-.015-.116c-.053-.31-.168-.551-.345-.724-.252-.247-.675-.37-1.267-.37-.33 0-.672.08-1.028.239-.357.159-.607.441-.75.847l-2.024-.642A3.434 3.434 0 0 1 49.2 8.7c.62-.46 1.464-.69 2.534-.69.785 0 1.481.12 2.09.361a2.61 2.61 0 0 1 1.383 1.25c.175.33.28.66.312.988.033.33.05.697.05 1.103v5.43h-1.959v-1.09l-.014.017c-.349.407-.719.715-1.11.922zm-17.21-5.23v5.382H33.02V8.256h1.975v.974l.102-.12c.238-.264.521-.486.849-.665a3.378 3.378 0 0 1 1.65-.403c.696 0 1.268.148 1.715.444l.145.103c.28.212.51.468.687.768l.037.069c.28-.42.646-.75 1.098-.993a3.364 3.364 0 0 1 1.616-.39c1.015 0 1.782.3 2.3.9.519.6.778 1.387.778 2.358v5.842h-2.238v-5.25c0-.587-.139-1.044-.416-1.37-.277-.326-.66-.49-1.148-.49-.312 0-.584.073-.814.218-.23.146-.41.349-.54.61-.128.26-.193.56-.193.9v5.382h-2.238v-5.25c0-.587-.138-1.044-.415-1.37-.277-.326-.66-.49-1.148-.49-.466 0-.84.16-1.123.482-.283.32-.424.736-.424 1.246zm15.782 3.868c-.258 0-.48-.039-.666-.115a.952.952 0 0 1-.432-.334.89.89 0 0 1-.153-.522c0-.148.032-.283.095-.403.063-.121.162-.232.296-.334.135-.101.312-.196.531-.284.192-.07.414-.137.667-.197.252-.06.584-.127.995-.202.257-.046.564-.1.92-.16l.03-.004v.007c-.003.102-.008.213-.014.333l-.01.187c-.02.32-.086.601-.202.843-.06.126-.174.282-.341.469a2.318 2.318 0 0 1-.675.498c-.282.145-.63.218-1.04.218zm23.888-2.304c.093-1.075-.017-2.01-.33-2.806-.312-.796-.795-1.413-1.448-1.852-.652-.438-1.445-.658-2.378-.658-.877 0-1.654.199-2.328.597a4.193 4.193 0 0 0-1.588 1.674c-.384.719-.576 1.564-.576 2.535 0 .888.196 1.677.588 2.365a4.245 4.245 0 0 0 1.63 1.621c.693.393 1.495.589 2.406.589.856 0 1.644-.225 2.366-.675a3.938 3.938 0 0 0 1.584-1.893l-2.238-.641c-.165.362-.404.639-.716.83-.313.193-.689.289-1.128.289-.696 0-1.224-.227-1.584-.68-.248-.313-.411-.716-.488-1.21l-.011-.085h6.239zm-6.18-1.662h3.915l-.013-.093c-.068-.437-.19-.778-.368-1.022-.288-.398-.758-.597-1.41-.597-.763 0-1.324.232-1.684.695l-.08.111c-.152.23-.267.507-.344.83l-.016.076zm10.286 5.48V12.6c0-.34.046-.646.14-.918a2.02 2.02 0 0 1 .411-.707c.181-.2.403-.361.667-.482.263-.126.558-.201.884-.226.327-.025.613.001.86.078v-2.09a4.173 4.173 0 0 0-.806-.02c-.269.019-.53.065-.782.14a2.87 2.87 0 0 0-.7.308c-.28.164-.515.373-.707.625-.077.101-.148.207-.212.316l-.035.063V8.256h-1.975v8.887h2.255z" fill="#ADADAD"/></svg>