<svg width="90" height="20" fill="none" xmlns="http://www.w3.org/2000/svg"><path fill-rule="evenodd" clip-rule="evenodd" d="M20 5a5 5 0 1 1-10 0 5 5 0 0 1 10 0zM10 15a5 5 0 1 1-10 0 5 5 0 0 1 10 0zm71.621 3.502c.347 0 .776-.035 1.287-.104.512-.07.934-.158 1.265-.266V15.1c-.301.092-.58.158-.836.196a5.464 5.464 0 0 1-.813.058c-.587 0-.997-.112-1.23-.335-.233-.224-.35-.606-.35-1.146v-4.65h3.342V6.1h-3.342V2.143l-3.658.81V6.1H74.87v3.123h2.416v5.392c0 1.28.365 2.248 1.095 2.904.73.655 1.81.983 3.24.983zm-50.106-.162V9.964c.226-.293.5-.513.824-.66.324-.146.69-.22 1.096-.22.587 0 1.057.205 1.41.614.355.409.531.944.531 1.608v7.034h3.659v-7.543a7.09 7.09 0 0 0-.046-.787c.241-.293.527-.52.858-.683.332-.162.7-.242 1.107-.242.587 0 1.057.204 1.411.613.354.409.53.944.53 1.608v7.034h3.659v-7.543c0-1.435-.433-2.615-1.299-3.54-.865-.926-1.975-1.389-3.33-1.389-.783 0-1.506.147-2.168.44a4.969 4.969 0 0 0-1.716 1.25 4.315 4.315 0 0 0-1.524-1.239 4.505 4.505 0 0 0-2.021-.45c-.557 0-1.088.084-1.592.254-.504.17-.967.424-1.389.763V6.1h-3.658v12.24h3.658zm23.168.231c.993 0 1.885-.146 2.675-.44.79-.292 1.562-.763 2.315-1.41l-2.416-2.199c-.286.293-.632.52-1.039.683a3.63 3.63 0 0 1-1.355.243c-.692 0-1.294-.182-1.806-.544a3.22 3.22 0 0 1-1.13-1.4h8.514v-.925c0-.957-.15-1.848-.452-2.673-.3-.825-.719-1.531-1.253-2.117A5.875 5.875 0 0 0 56.828 6.4a5.71 5.71 0 0 0-2.416-.509c-.873 0-1.69.162-2.45.486a6.033 6.033 0 0 0-1.976 1.342 6.357 6.357 0 0 0-1.321 2.025 6.42 6.42 0 0 0-.485 2.487c0 .88.169 1.709.508 2.488a6.38 6.38 0 0 0 1.377 2.025 6.27 6.27 0 0 0 2.066 1.341 6.716 6.716 0 0 0 2.552.486zM51.86 10.89h4.99c-.195-.586-.515-1.056-.96-1.411a2.406 2.406 0 0 0-1.546-.532c-.602 0-1.122.17-1.558.509-.437.34-.745.817-.926 1.434zm16.258 7.682c.994 0 1.886-.146 2.676-.44.79-.292 1.562-.763 2.314-1.41l-2.416-2.199c-.286.293-.632.52-1.038.683a3.63 3.63 0 0 1-1.355.243c-.693 0-1.295-.182-1.807-.544a3.22 3.22 0 0 1-1.129-1.4h8.513v-.925c0-.957-.15-1.848-.452-2.673-.3-.825-.718-1.531-1.253-2.117A5.875 5.875 0 0 0 70.263 6.4a5.71 5.71 0 0 0-2.416-.509c-.873 0-1.69.162-2.45.486a6.032 6.032 0 0 0-1.976 1.342 6.357 6.357 0 0 0-1.32 2.025 6.42 6.42 0 0 0-.486 2.487c0 .88.17 1.709.508 2.488a6.378 6.378 0 0 0 1.377 2.025 6.27 6.27 0 0 0 2.067 1.341 6.716 6.716 0 0 0 2.551.486zm-2.822-7.682h4.99c-.196-.586-.516-1.056-.96-1.411a2.406 2.406 0 0 0-1.547-.532c-.602 0-1.121.17-1.558.509-.436.34-.745.817-.925 1.434zm22.367-5.612c.463 0 .853-.156 1.172-.466.318-.31.478-.7.478-1.173 0-.463-.16-.852-.478-1.166A1.604 1.604 0 0 0 87.663 2c-.463 0-.855.157-1.178.472A1.563 1.563 0 0 0 86 3.638c0 .472.162.863.484 1.173.324.31.716.466 1.179.466z" fill="#ADADAD"/></svg>